<?xml version="1.0" encoding="UTF-8" standalone="no"?>
<!-- Created with Inkscape (http://www.inkscape.org/) -->

<svg
   xmlns:dc="http://purl.org/dc/elements/1.1/"
   xmlns:cc="http://creativecommons.org/ns#"
   xmlns:rdf="http://www.w3.org/1999/02/22-rdf-syntax-ns#"
   xmlns:svg="http://www.w3.org/2000/svg"
   xmlns="http://www.w3.org/2000/svg"
   xmlns:sodipodi="http://sodipodi.sourceforge.net/DTD/sodipodi-0.dtd"
   xmlns:inkscape="http://www.inkscape.org/namespaces/inkscape"
   width="210mm"
   height="297mm"
   viewBox="0 0 744.09448819 1052.3622047"
   id="svg4170"
   version="1.1"
   inkscape:version="0.91 r13725"
   sodipodi:docname="crowbar.svg">
  <defs
     id="defs4172" />
  <sodipodi:namedview
     id="base"
     pagecolor="#ffffff"
     bordercolor="#666666"
     borderopacity="1.0"
     inkscape:pageopacity="0.0"
     inkscape:pageshadow="2"
     inkscape:zoom="0.70910507"
     inkscape:cx="70.50705"
     inkscape:cy="519.23289"
     inkscape:document-units="px"
     inkscape:current-layer="layer1"
     showgrid="false"
     inkscape:window-width="1536"
     inkscape:window-height="801"
     inkscape:window-x="-8"
     inkscape:window-y="-8"
     inkscape:window-maximized="1" />
  <metadata
     id="metadata4175">
    <rdf:RDF>
      <cc:Work
         rdf:about="">
        <dc:format>image/svg+xml</dc:format>
        <dc:type
           rdf:resource="http://purl.org/dc/dcmitype/StillImage" />
        <dc:title />
      </cc:Work>
    </rdf:RDF>
  </metadata>
  <g
     inkscape:groupmode="layer"
     id="layer9"
     inkscape:label="Bottom"
     style="display:inline"
     sodipodi:insensitive="true">
    <path
       sodipodi:type="star"
       style="fill:#000000;fill-opacity:1;stroke:#301900;stroke-width:15;stroke-miterlimit:4;stroke-dasharray:none;stroke-opacity:0"
       id="path6418"
       sodipodi:sides="3"
       sodipodi:cx="521.27661"
       sodipodi:cy="731.08563"
       sodipodi:r1="27.984991"
       sodipodi:r2="13.992496"
       sodipodi:arg1="-0.15264933"
       sodipodi:arg2="0.89454822"
       inkscape:flatsided="true"
       inkscape:rounded="1.04083e-017"
       inkscape:randomized="0"
       d="m 548.93618,726.83031 -37.80414,30.33687 -7.37043,-47.90778 z"
       inkscape:transform-center-x="-10.374718"
       inkscape:transform-center-y="-17.652031"
       transform="matrix(1.4409421,0,0,0.92182833,-223.82797,58.230952)" />
  </g>
  <g
     inkscape:label="Main"
     inkscape:groupmode="layer"
     id="layer1"
     style="display:inline"
     sodipodi:insensitive="true">
    <rect
       style="fill:#000000;fill-opacity:1;stroke:none;stroke-width:12.20899963;stroke-miterlimit:4;stroke-dasharray:none;stroke-opacity:1"
       id="rect4718"
       width="30.996695"
       height="577.74652"
       x="35.388493"
       y="342.40155"
       transform="matrix(0.7145667,-0.69956732,0.52962207,0.84823373,0,0)" />
  </g>
  <g
     inkscape:groupmode="layer"
     id="layer11"
     inkscape:label="Top connector"
     style="display:inline"
     sodipodi:insensitive="true">
    <path
       style="fill:#000000;fill-opacity:1;fill-rule:evenodd;stroke:#000000;stroke-width:0.56751013px;stroke-linecap:butt;stroke-linejoin:miter;stroke-opacity:1"
       d="m 161.54008,302.47677 c 0,0 2.6006,-11.15643 4.61527,-16.50059 2.10911,-5.59467 3.51243,-11.97127 7.77431,-16.16472 4.71132,-4.63568 11.39784,-8.1753 18.00613,-8.30382 4.29718,-0.0836 8.13696,1.06358 11.96005,3.36484 3.82309,2.30126 7.62948,5.75664 11.85987,6.51593 8.5345,1.53181 25.99384,-0.98879 25.99384,-0.98879 l -5.46128,-10.99878 -8.3468,-15.76297 -4.49267,-4.18121 -5.55435,-3.98605 c 0,0 -1.79325,-1.13417 -4.0911,-2.40404 -2.29785,-1.26987 -5.1003,-2.67544 -7.11871,-3.21825 -3.64831,-0.98113 -11.31303,-0.68567 -11.31303,-0.68567 -4.41988,-0.26788 -8.96648,0.24784 -13.28051,1.24595 -5.92842,1.37162 -11.65707,4.06346 -16.57838,7.64231 -5.8121,4.22665 -10.76405,9.78047 -14.62022,15.84471 -3.99976,6.29005 -8.45118,20.70369 -8.45118,20.70369 l -5.0354,17.01898 z"
       id="path6450"
       inkscape:connector-curvature="0"
       sodipodi:nodetypes="cssssscccccssssssccc" />
  </g>
  <g
     inkscape:groupmode="layer"
     id="layer14"
     inkscape:label="Top"
     style="display:inline"
     sodipodi:insensitive="true">
    <path
       style="fill:#000000;fill-opacity:1;fill-rule:evenodd;stroke:#000000;stroke-width:0.9247508px;stroke-linecap:butt;stroke-linejoin:miter;stroke-opacity:1"
       d="m 140.52013,281.00261 -16.79659,52.54122 8.63792,2.46416 11.16006,-19.46739 -3.23761,21.92896 10.49043,3.04349 13.05365,-49.35216 z"
       id="path6505"
       inkscape:connector-curvature="0"
       sodipodi:nodetypes="cccccccc" />
  </g>
</svg>
