<?xml version="1.0" encoding="UTF-8" standalone="no"?>
<!-- Created with Inkscape (http://www.inkscape.org/) -->

<svg
   xmlns:dc="http://purl.org/dc/elements/1.1/"
   xmlns:cc="http://creativecommons.org/ns#"
   xmlns:rdf="http://www.w3.org/1999/02/22-rdf-syntax-ns#"
   xmlns:svg="http://www.w3.org/2000/svg"
   xmlns="http://www.w3.org/2000/svg"
   xmlns:sodipodi="http://sodipodi.sourceforge.net/DTD/sodipodi-0.dtd"
   xmlns:inkscape="http://www.inkscape.org/namespaces/inkscape"
   width="210mm"
   height="297mm"
   viewBox="0 0 744.09448819 1052.3622047"
   id="svg4720"
   version="1.1"
   inkscape:version="0.91 r13725"
   sodipodi:docname="banana.svg">
  <defs
     id="defs4722" />
  <sodipodi:namedview
     id="base"
     pagecolor="#ffffff"
     bordercolor="#666666"
     borderopacity="1.0"
     inkscape:pageopacity="0.0"
     inkscape:pageshadow="2"
     inkscape:zoom="0.46"
     inkscape:cx="170.97435"
     inkscape:cy="443.04883"
     inkscape:document-units="px"
     inkscape:current-layer="layer7"
     showgrid="false"
     inkscape:window-width="1920"
     inkscape:window-height="1017"
     inkscape:window-x="-8"
     inkscape:window-y="-8"
     inkscape:window-maximized="1" />
  <metadata
     id="metadata4725">
    <rdf:RDF>
      <cc:Work
         rdf:about="">
        <dc:format>image/svg+xml</dc:format>
        <dc:type
           rdf:resource="http://purl.org/dc/dcmitype/StillImage" />
        <dc:title></dc:title>
      </cc:Work>
    </rdf:RDF>
  </metadata>
  <g
     inkscape:groupmode="layer"
     id="layer6"
     inkscape:label="Banana"
     style="display:inline"
     sodipodi:insensitive="true">
    <path
       style="fill:#ffda00;fill-opacity:1;fill-rule:evenodd;stroke:none;stroke-width:15;stroke-linecap:butt;stroke-linejoin:miter;stroke-miterlimit:4;stroke-dasharray:none;stroke-opacity:1"
       d="m 118.72367,244.63933 c -12.67386,357.1001 96.53776,466.18904 235.46729,527.72682 152.71309,67.6431 333.53652,2.80488 333.53652,2.80488 0,0 -102.71739,-58.10052 -153.52098,-88.11703 -34.69099,-20.49664 -71.20983,-38.38105 -103.29847,-62.79984 -32.50334,-24.73437 -61.7556,-53.7972 -89.3331,-83.99312 C 303.59268,498.67247 270.98607,452.3795 237.37861,407.13471 194.17986,348.97744 118.72367,244.63933 118.72367,244.63933 Z"
       id="path5277"
       inkscape:connector-curvature="0"
       sodipodi:nodetypes="cscssssc" />
  </g>
  <g
     style="display:inline"
     inkscape:label="Banana copy"
     id="g5303"
     inkscape:groupmode="layer"
     sodipodi:insensitive="true">
    <path
       sodipodi:nodetypes="cscssssc"
       inkscape:connector-curvature="0"
       id="path5305"
       d="m 112.20193,229.42194 c 31.92392,359.14111 168.10555,453.03621 303.08218,522.81889 134.97663,69.78266 272.44337,22.9302 272.44337,22.9302 0,0 -102.71739,-58.10052 -153.52098,-88.11703 -34.69099,-20.49664 -71.20983,-38.38105 -103.29847,-62.79984 -32.50334,-24.73437 -61.7556,-53.7972 -89.3331,-83.99312 C 303.59268,498.67247 270.98607,452.3795 237.37861,407.13471 194.17986,348.97744 112.20193,229.42194 112.20193,229.42194 Z"
       style="fill:#ffeb00;fill-opacity:1;fill-rule:evenodd;stroke:none;stroke-width:15;stroke-linecap:butt;stroke-linejoin:miter;stroke-miterlimit:4;stroke-dasharray:none;stroke-opacity:1" />
  </g>
  <g
     inkscape:groupmode="layer"
     id="layer7"
     inkscape:label="Top"
     sodipodi:insensitive="true">
    <rect
       style="fill:#ffeb00;fill-opacity:1;stroke:none;stroke-width:15;stroke-miterlimit:4;stroke-dasharray:none;stroke-opacity:1"
       id="rect5282"
       width="31.884312"
       height="87.394142"
       x="4.3768406"
       y="240.54701"
       transform="matrix(0.93094224,-0.36516647,0.36087634,0.93261368,0,0)"
       inkscape:transform-center-x="-60.46437"
       inkscape:transform-center-y="-0.78670932" />
  </g>
</svg>
