<?xml version="1.0" encoding="UTF-8" standalone="no"?>
<!-- Created with Inkscape (http://www.inkscape.org/) -->

<svg
   xmlns:dc="http://purl.org/dc/elements/1.1/"
   xmlns:cc="http://creativecommons.org/ns#"
   xmlns:rdf="http://www.w3.org/1999/02/22-rdf-syntax-ns#"
   xmlns:svg="http://www.w3.org/2000/svg"
   xmlns="http://www.w3.org/2000/svg"
   xmlns:sodipodi="http://sodipodi.sourceforge.net/DTD/sodipodi-0.dtd"
   xmlns:inkscape="http://www.inkscape.org/namespaces/inkscape"
   width="210mm"
   height="297mm"
   viewBox="0 0 744.09448819 1052.3622047"
   id="svg3448"
   version="1.1"
   inkscape:version="0.91 r13725"
   sodipodi:docname="gun.svg">
  <defs
     id="defs3450" />
  <sodipodi:namedview
     id="base"
     pagecolor="#ffffff"
     bordercolor="#666666"
     borderopacity="1.0"
     inkscape:pageopacity="0.0"
     inkscape:pageshadow="2"
     inkscape:zoom="0.98994949"
     inkscape:cx="106.42857"
     inkscape:cy="588.97753"
     inkscape:document-units="px"
     inkscape:current-layer="layer5"
     showgrid="false"
     inkscape:window-width="1920"
     inkscape:window-height="1017"
     inkscape:window-x="-8"
     inkscape:window-y="-8"
     inkscape:window-maximized="1" />
  <metadata
     id="metadata3453">
    <rdf:RDF>
      <cc:Work
         rdf:about="">
        <dc:format>image/svg+xml</dc:format>
        <dc:type
           rdf:resource="http://purl.org/dc/dcmitype/StillImage" />
        <dc:title></dc:title>
      </cc:Work>
    </rdf:RDF>
  </metadata>
  <g
     inkscape:label="Layer 1"
     inkscape:groupmode="layer"
     id="layer1"
     sodipodi:insensitive="true">
    <rect
       style="fill:#1a1a1a"
       id="rect3456"
       width="145.68034"
       height="285.27164"
       x="272.80301"
       y="609.76581"
       rx="13.448679"
       transform="matrix(0.88386273,-0.46774637,0.28508564,0.95850205,0,0)" />
    <rect
       style="fill:#1a1a1a"
       id="rect3458"
       width="448.57144"
       height="117.14286"
       x="105.71429"
       y="358.07651"
       rx="13.7588" />
    <rect
       style="fill:#1a1a1a;fill-opacity:1"
       id="rect3512"
       width="190.46465"
       height="46.187321"
       x="586.09766"
       y="-231.1297"
       rx="9.0811653"
       transform="matrix(0.527659,0.84945629,-0.68218307,0.73118142,0,0)" />
    <rect
       style="fill:#1a1a1a;fill-opacity:1"
       id="rect3512-8"
       width="288.57144"
       height="62.857143"
       x="72.85714"
       y="372.36221"
       rx="13.7588" />
    <ellipse
       style="fill:#1a1a1a;fill-opacity:1"
       id="path3529"
       cx="534.28571"
       cy="439.50507"
       rx="45.714287"
       ry="27.142857" />
    <rect
       style="fill:#1a1a1a;fill-opacity:1"
       id="rect3531"
       width="21.428572"
       height="79.285713"
       x="330"
       y="463.79077"
       rx="9.0811701" />
    <rect
       style="fill:#1a1a1a;fill-opacity:1"
       id="rect3531-2"
       width="21.430723"
       height="157.11281"
       x="523.91241"
       y="-496.34726"
       rx="9.0820808"
       transform="matrix(-0.01590433,0.99987352,-0.9999946,-0.00328754,0,0)" />
    <path
       style="fill:#1a1a1a;fill-opacity:1"
       id="path3548"
       sodipodi:type="arc"
       sodipodi:cx="-392.54694"
       sodipodi:cy="538.83948"
       sodipodi:rx="28.982508"
       sodipodi:ry="24.975384"
       sodipodi:start="0.13407875"
       sodipodi:end="2.7989327"
       d="m -363.82455,542.17812 a 28.982508,24.975384 0 0 1 -25.70526,21.50104 28.982508,24.975384 0 0 1 -30.31471,-16.44811"
       transform="matrix(0.39852696,-0.91715662,0.97211405,0.23450859,0,0)"
       sodipodi:open="true" />
    <rect
       style="fill:#1a1a1a;fill-opacity:1"
       id="rect3550"
       width="153.97171"
       height="72.193336"
       x="8.6086435"
       y="801.65753"
       rx="13.477468"
       transform="matrix(0.97477442,-0.22319234,0.56459666,0.82536696,0,0)" />
  </g>
  <g
     inkscape:groupmode="layer"
     id="layer4"
     inkscape:label="Layer 2"
     sodipodi:insensitive="true">
    <rect
       style="fill:#666666"
       id="rect3456-4"
       width="145.68034"
       height="285.27164"
       x="278.2175"
       y="614.36267"
       rx="13.448679"
       transform="matrix(0.88386273,-0.46774637,0.28508564,0.95850205,0,0)" />
    <rect
       style="fill:#666666"
       id="rect3458-9"
       width="448.57144"
       height="117.14286"
       x="111.81046"
       y="359.94998"
       rx="13.7588" />
    <rect
       style="fill:#666666;fill-opacity:1"
       id="rect3512-4"
       width="190.46465"
       height="46.187321"
       x="592.03931"
       y="-235.4702"
       rx="9.0811653"
       transform="matrix(0.527659,0.84945629,-0.68218307,0.73118142,0,0)" />
    <rect
       style="fill:#666666;fill-opacity:1"
       id="rect3512-8-5"
       width="288.57144"
       height="62.857143"
       x="78.953316"
       y="374.23569"
       rx="13.7588" />
    <ellipse
       style="fill:#666666;fill-opacity:1"
       id="path3529-2"
       cx="540.38184"
       cy="441.37854"
       rx="45.714287"
       ry="27.142857" />
    <rect
       style="fill:#666666;fill-opacity:1"
       id="rect3531-6"
       width="21.428572"
       height="79.285713"
       x="336.09616"
       y="465.66425"
       rx="9.0811701" />
    <rect
       style="fill:#666666;fill-opacity:1"
       id="rect3531-2-3"
       width="21.430723"
       height="157.11281"
       x="525.76599"
       y="-502.47293"
       rx="9.0820808"
       transform="matrix(-0.01590433,0.99987352,-0.9999946,-0.00328754,0,0)" />
    <path
       style="fill:#666666;fill-opacity:1"
       id="path3548-9"
       sodipodi:type="arc"
       sodipodi:cx="-392.94452"
       sodipodi:cy="545.2735"
       sodipodi:rx="28.982508"
       sodipodi:ry="24.975384"
       sodipodi:start="0.13407875"
       sodipodi:end="2.7989327"
       d="m -364.22213,548.61214 a 28.982508,24.975384 0 0 1 -25.70526,21.50104 28.982508,24.975384 0 0 1 -30.31472,-16.44811"
       transform="matrix(0.39852696,-0.91715662,0.97211405,0.23450859,0,0)"
       sodipodi:open="true" />
    <rect
       style="fill:#666666;fill-opacity:1"
       id="rect3550-2"
       width="153.97171"
       height="72.193336"
       x="12.878982"
       y="805.08215"
       rx="13.477468"
       transform="matrix(0.97477442,-0.22319234,0.56459666,0.82536696,0,0)" />
  </g>
  <g
     inkscape:groupmode="layer"
     id="layer5"
     inkscape:label="Layer 3">
    <rect
       style="fill:#1a1a1a;fill-opacity:1"
       id="rect3595"
       width="128.60677"
       height="170.01414"
       x="248.8846"
       y="597.48163"
       rx="9.1045485"
       transform="matrix(0.96712875,-0.25428721,0.31770538,0.94818948,0,0)" />
    <rect
       style="fill:#1a1a1a;fill-opacity:1"
       id="rect3597"
       width="125.25893"
       height="34.345181"
       x="431.33511"
       y="470.51434"
       rx="7.8906255" />
    <rect
       style="fill:#1a1a1a;fill-opacity:1"
       id="rect3599"
       width="267.69043"
       height="7.0710678"
       x="106.06602"
       y="437.17929"
       rx="9.1045504" />
    <rect
       style="fill:#1a1a1a;fill-opacity:1"
       id="rect3603"
       width="8.0812206"
       height="112.12692"
       x="109.09647"
       y="362.42801"
       rx="9.1045504" />
    <rect
       style="fill:#1a1a1a;fill-opacity:1"
       id="rect3665"
       width="91.923882"
       height="34.345188"
       x="352.54324"
       y="357.37726"
       rx="2.5030501" />
  </g>
</svg>
